<svg width="61" height="60" viewBox="0 0 61 60" fill="none" xmlns="http://www.w3.org/2000/svg">
<path d="M30.5146 33.5L18.2646 45.75C17.8063 46.2083 17.223 46.4375 16.5146 46.4375C15.8063 46.4375 15.223 46.2083 14.7646 45.75C14.3063 45.2917 14.0771 44.7083 14.0771 44C14.0771 43.2917 14.3063 42.7083 14.7646 42.25L27.0146 30L14.7646 17.75C14.3063 17.2917 14.0771 16.7083 14.0771 16C14.0771 15.2917 14.3063 14.7083 14.7646 14.25C15.223 13.7917 15.8063 13.5625 16.5146 13.5625C17.223 13.5625 17.8063 13.7917 18.2646 14.25L30.5146 26.5L42.7646 14.25C43.223 13.7917 43.8063 13.5625 44.5146 13.5625C45.223 13.5625 45.8063 13.7917 46.2646 14.25C46.723 14.7083 46.9521 15.2917 46.9521 16C46.9521 16.7083 46.723 17.2917 46.2646 17.75L34.0146 30L46.2646 42.25C46.723 42.7083 46.9521 43.2917 46.9521 44C46.9521 44.7083 46.723 45.2917 46.2646 45.75C45.8063 46.2083 45.223 46.4375 44.5146 46.4375C43.8063 46.4375 43.223 46.2083 42.7646 45.75L30.5146 33.5Z" fill="black"/>
</svg>
