<svg width="35" height="35" viewBox="0 0 35 35" fill="none" xmlns="http://www.w3.org/2000/svg">
<path d="M10.6104 14.165C10.6104 13.1539 11.012 12.1841 11.727 11.4692C12.442 10.7542 13.4117 10.3525 14.4228 10.3525H26.8107C27.3114 10.3525 27.8071 10.4512 28.2697 10.6427C28.7322 10.8343 29.1525 11.1152 29.5065 11.4692C29.8605 11.8232 30.1413 12.2435 30.3329 12.706C30.5245 13.1686 30.6231 13.6643 30.6231 14.165V26.5529C30.6231 27.0535 30.5245 27.5493 30.3329 28.0118C30.1413 28.4744 29.8605 28.8947 29.5065 29.2487C29.1525 29.6027 28.7322 29.8835 28.2697 30.0751C27.8071 30.2667 27.3114 30.3653 26.8107 30.3653H14.4228C13.9221 30.3653 13.4264 30.2667 12.9638 30.0751C12.5013 29.8835 12.081 29.6027 11.727 29.2487C11.373 28.8947 11.0921 28.4744 10.9006 28.0118C10.709 27.5493 10.6104 27.0535 10.6104 26.5529V14.165Z" stroke="#247FAC" stroke-width="2.85897" stroke-linecap="round" stroke-linejoin="round"/>
<path d="M6.33922 24.2716C5.90036 24.0222 5.53534 23.6612 5.28126 23.225C5.02717 22.7889 4.89306 22.2933 4.89258 21.7886V7.49373C4.89258 5.9213 6.17911 4.63477 7.75155 4.63477H22.0464C23.1185 4.63477 23.7017 5.18512 24.1906 6.06425" stroke="#247FAC" stroke-width="2.85897" stroke-linecap="round" stroke-linejoin="round"/>
</svg>
