<svg width="58" height="69" viewBox="0 0 58 69" fill="none" xmlns="http://www.w3.org/2000/svg">
<path d="M54.1145 9.69635C54.9471 9.69635 55.7456 10.0271 56.3343 10.6158C56.923 11.2045 57.2538 12.003 57.2538 12.8356C57.2538 13.6682 56.923 14.4667 56.3343 15.0554C55.7456 15.6441 54.9471 15.9749 54.1145 15.9749H50.9753L50.9658 16.1978L48.0369 57.2311C47.9242 58.8151 47.2154 60.2975 46.0533 61.3798C44.8912 62.4621 43.3621 63.0638 41.7741 63.0638H16.2236C14.6356 63.0638 13.1066 62.4621 11.9445 61.3798C10.7824 60.2975 10.0736 58.8151 9.9608 57.2311L7.03187 16.2009L7.02559 15.9749H3.88633C3.05375 15.9749 2.25526 15.6441 1.66654 15.0554C1.07781 14.4667 0.74707 13.6682 0.74707 12.8356C0.74707 12.003 1.07781 11.2045 1.66654 10.6158C2.25526 10.0271 3.05375 9.69635 3.88633 9.69635H54.1145ZM35.279 0.278564C36.1115 0.278564 36.91 0.609307 37.4987 1.19803C38.0875 1.78676 38.4182 2.58524 38.4182 3.41783C38.4182 4.25041 38.0875 5.04889 37.4987 5.63762C36.91 6.22635 36.1115 6.55709 35.279 6.55709H22.7219C21.8893 6.55709 21.0908 6.22635 20.5021 5.63762C19.9134 5.04889 19.5826 4.25041 19.5826 3.41783C19.5826 2.58524 19.9134 1.78676 20.5021 1.19803C21.0908 0.609307 21.8893 0.278564 22.7219 0.278564H35.279Z" fill="#D74F4F"/>
</svg>
