<svg width="33" height="33" viewBox="0 0 33 33" fill="none" xmlns="http://www.w3.org/2000/svg">
<path d="M20.5218 5.84842V26.5098C20.5218 27.9484 18.8231 28.7111 17.7485 27.7551L11.7591 22.4298C11.5761 22.2673 11.3399 22.1777 11.0951 22.1778H6.18848C5.79451 22.1778 5.4044 22.1002 5.04043 21.9494C4.67645 21.7986 4.34573 21.5777 4.06716 21.2991C3.78858 21.0205 3.5676 20.6898 3.41684 20.3258C3.26607 19.9618 3.18848 19.5717 3.18848 19.1778V13.1804C3.18883 12.385 3.50506 11.6223 4.06763 11.06C4.6302 10.4976 5.39306 10.1818 6.18848 10.1818H11.0951C11.34 10.1815 11.5763 10.0913 11.7591 9.92842L17.7471 4.60442C18.8231 3.64842 20.5218 4.41109 20.5218 5.84842ZM25.8445 8.04576C26.0575 7.88789 26.3246 7.82113 26.5869 7.86013C26.8492 7.89914 27.0852 8.04073 27.2431 8.25376C28.9436 10.5474 29.8595 13.3279 29.8551 16.1831C29.8588 19.038 28.9424 21.818 27.2418 24.1111C27.0823 24.3196 26.8471 24.4571 26.5871 24.4937C26.3271 24.5303 26.0631 24.4632 25.8522 24.3069C25.6412 24.1506 25.5002 23.9175 25.4596 23.6581C25.419 23.3987 25.482 23.1337 25.6351 22.9204C27.0804 20.9718 27.8589 18.6092 27.8551 16.1831C27.8592 13.7566 27.0807 11.3934 25.6351 9.44442C25.5568 9.3388 25.5001 9.21877 25.4683 9.09121C25.4364 8.96364 25.43 8.83105 25.4495 8.70101C25.4689 8.57097 25.5138 8.44605 25.5816 8.33338C25.6494 8.22072 25.7387 8.12386 25.8445 8.04576ZM23.3791 11.3418C23.4946 11.2791 23.6213 11.2399 23.7519 11.2262C23.8826 11.2126 24.0146 11.2248 24.1406 11.2622C24.2665 11.2996 24.3838 11.3614 24.4858 11.4441C24.5878 11.5269 24.6726 11.6289 24.7351 11.7444C25.4498 13.0644 25.8551 14.5778 25.8551 16.1831C25.8558 17.7322 25.4709 19.2572 24.7351 20.6204C24.6726 20.736 24.588 20.8381 24.486 20.9209C24.384 21.0038 24.2667 21.0657 24.1408 21.1033C24.0149 21.1408 23.8828 21.1531 23.7521 21.1396C23.6215 21.1261 23.4947 21.0869 23.3791 21.0244C23.2636 20.9619 23.1615 20.8773 23.0786 20.7753C22.9958 20.6733 22.9338 20.556 22.8963 20.4301C22.8588 20.3042 22.8464 20.1721 22.86 20.0414C22.8735 19.9107 22.9126 19.784 22.9751 19.6684C23.5531 18.5976 23.8555 17.3999 23.8551 16.1831C23.8551 14.9191 23.5351 13.7324 22.9751 12.6964C22.8492 12.4632 22.821 12.1895 22.8967 11.9355C22.9725 11.6815 23.146 11.4679 23.3791 11.3418Z" fill="black"/>
</svg>
