<svg width="26" height="26" viewBox="0 0 26 26" fill="none" xmlns="http://www.w3.org/2000/svg">
<path d="M1.56663 0.433829C1.49225 0.359448 1.40395 0.300447 1.30676 0.260192C1.20958 0.219938 1.10542 0.199219 1.00023 0.199219C0.895039 0.199219 0.790879 0.219938 0.693696 0.260192C0.596513 0.300447 0.50821 0.359448 0.433829 0.433829C0.359448 0.50821 0.300447 0.596513 0.260192 0.693696C0.219938 0.790879 0.199219 0.895039 0.199219 1.00023C0.199219 1.10542 0.219938 1.20958 0.260192 1.30676C0.300447 1.40395 0.359448 1.49225 0.433829 1.56663L5.46903 6.60023H2.60023C1.96371 6.60023 1.35326 6.85309 0.903173 7.30317C0.453086 7.75326 0.200229 8.36371 0.200229 9.00023V17.0002C0.200229 17.6367 0.453086 18.2472 0.903173 18.6973C1.35326 19.1474 1.96371 19.4002 2.60023 19.4002H6.77143C6.9731 19.4001 7.1674 19.4761 7.31543 19.613L13.5122 25.3634C14.5362 26.3138 16.2002 25.5874 16.2002 24.1906V17.3314L24.4338 25.5666C24.584 25.7168 24.7878 25.8012 25.0002 25.8012C25.2127 25.8012 25.4164 25.7168 25.5666 25.5666C25.7168 25.4164 25.8012 25.2127 25.8012 25.0002C25.8012 24.7878 25.7168 24.584 25.5666 24.4338L21.4626 20.3314L1.56663 0.433829ZM22.5362 4.46583C24.44 6.59497 25.5774 9.29941 25.7676 12.1492C25.9577 14.999 25.1898 17.8306 23.5858 20.1938L22.4322 19.037C23.7496 16.9759 24.3563 14.5403 24.1599 12.102C23.9634 9.66372 22.9746 7.35669 21.3442 5.53303C21.273 5.45495 21.218 5.36353 21.1823 5.26406C21.1466 5.16459 21.131 5.05903 21.1363 4.95348C21.1416 4.84793 21.1678 4.74449 21.2134 4.64913C21.2589 4.55376 21.3229 4.46837 21.4017 4.39788C21.4804 4.32738 21.5723 4.27319 21.6721 4.23843C21.7719 4.20366 21.8776 4.18901 21.9831 4.19533C22.0886 4.20165 22.1918 4.22881 22.2867 4.27524C22.3817 4.32166 22.4665 4.38644 22.5362 4.46583ZM20.6162 8.60023C21.378 9.91892 21.7845 11.4127 21.796 12.9356C21.8075 14.4584 21.4236 15.9582 20.6818 17.2882L19.4946 16.101C19.9976 15.0465 20.2364 13.8854 20.1904 12.718C20.1444 11.5506 19.815 10.4119 19.2306 9.40023C19.1773 9.30921 19.1424 9.20854 19.1282 9.10401C19.1139 8.99948 19.1204 8.89315 19.1473 8.79115C19.1743 8.68915 19.2212 8.5935 19.2853 8.50969C19.3494 8.42588 19.4294 8.35557 19.5208 8.30282C19.6121 8.25007 19.713 8.21591 19.8177 8.20231C19.9223 8.18871 20.0286 8.19594 20.1304 8.22358C20.2322 8.25122 20.3275 8.29873 20.4109 8.36338C20.4943 8.42802 20.5641 8.50851 20.6162 8.60023ZM16.2002 1.80983V12.8082L8.59383 5.20023L13.5122 0.637029C14.5362 -0.313371 16.2002 0.413029 16.2002 1.80983Z" fill="black"/>
</svg>
